<?xml version="1.0" encoding="UTF-8"?>
<svg width="40px" height="40px" viewBox="0 0 40 40" version="1.1" xmlns="http://www.w3.org/2000/svg" xmlns:xlink="http://www.w3.org/1999/xlink">
    <!-- Generator: sketchtool 59.1 (101010) - https://sketch.com -->
    <title>DA8D8FC4-033D-4A25-A4F6-75873ECC29B3</title>
    <desc>Created with sketchtool.</desc>
    <g id="Page-1" stroke="none" stroke-width="1" fill="none" fill-rule="evenodd">
        <g id="assets" transform="translate(-30.000000, -405.000000)">
            <g id="Group-27" transform="translate(30.000000, 406.000000)">
                <rect id="Rectangle-58" x="0" y="0" width="38.961039" height="39"></rect>
                <path d="M25.603112,7.31717343 L22.4990092,7.3125 C19.0120681,7.3125 16.7579908,9.62709343 16.7579908,13.2088091 L16.7579908,15.9278099 L13.6367692,15.9278099 C13.3681599,15.9278099 13.1493506,16.1455917 13.1493506,16.4157159 L13.1493506,20.3554162 C13.1493506,20.6242942 13.3681599,20.8433222 13.6367692,20.8433222 L16.7579908,20.8433222 L16.7579908,30.7830818 C16.7579908,31.0519597 16.9768,31.2709878 17.2466543,31.2709878 L21.3171905,31.2709878 C21.5870448,31.2709878 21.805854,31.0519597 21.805854,30.7830818 L21.805854,20.8433222 L25.4546455,20.8433222 C25.7244998,20.8433222 25.9423753,20.6242942 25.9423753,20.3554162 L25.944554,16.4157159 C25.944554,16.2867293 25.8922639,16.1627276 25.8010675,16.0701937 C25.709871,15.9789061 25.5859932,15.9278099 25.4558905,15.9278099 L21.805854,15.9278099 L21.805854,13.6228749 C21.805854,12.5152723 22.0697945,11.9529031 23.5105739,11.9529031 L25.601867,11.9516568 C25.8717214,11.9516568 26.0892856,11.7326288 26.0892856,11.4637509 L26.0892856,7.80663719 C26.0892856,7.53620145 25.8717214,7.31841968 25.603112,7.31717343 Z" id="Fill-1" fill="#023970"></path>
            </g>
        </g>
    </g>
</svg>