<?xml version="1.0" encoding="UTF-8"?>
<svg width="130px" height="130px" viewBox="0 0 130 130" version="1.1" xmlns="http://www.w3.org/2000/svg" xmlns:xlink="http://www.w3.org/1999/xlink">
    <!-- Generator: sketchtool 59.1 (101010) - https://sketch.com -->
    <title>46671BB0-B8F0-4763-887C-AC852D9C4A16</title>
    <desc>Created with sketchtool.</desc>
    <defs>
        <polygon id="path-1" points="0 118.98124 108.226512 118.98124 108.226512 0 0 0"></polygon>
    </defs>
    <g id="Page-1" stroke="none" stroke-width="1" fill="none" fill-rule="evenodd">
        <g id="assets" transform="translate(-184.000000, -537.000000)">
            <g id="Group-8" transform="translate(184.000000, 537.000000)">
                <rect id="Rectangle" x="0" y="0" width="130" height="130"></rect>
                <g id="Group-20" transform="translate(10.077519, 5.038760)">
                    <path d="M56.2964496,10.6795504 L22.6647442,79.9816434 L90.4380775,79.9816434 C90.4380775,79.9816434 95.0243566,25.9671473 56.2964496,10.6795504 Z" id="Stroke-1" stroke="#1D1D1B" stroke-width="2" stroke-linecap="round" stroke-linejoin="round"></path>
                    <polygon id="Stroke-3" stroke="#1D1D1B" stroke-width="2" stroke-linecap="round" stroke-linejoin="round" points="33.3072093 95.788031 37.8934884 87.3803566 58.7862016 87.3803566 64.3913178 95.788031"></polygon>
                    <path d="M90.3105969,95.788031 L15.9133101,95.788031 L8.77842636,109.800822 L77.5716047,109.800822 C77.5716047,109.800822 84.9604419,108.909969 90.3105969,95.788031 Z" id="Stroke-5" stroke="#1D1D1B" stroke-width="2" stroke-linecap="round" stroke-linejoin="round"></path>
                    <path d="M1.00775194,112.243612 C1.00775194,112.243612 9.92534884,95.4272558 45.5957364,105.618651 C72.032093,113.17276 95.6689147,104.771132 106.135426,99.9157829 C106.954729,99.5358605 107.631938,100.651442 106.920465,101.207721 C97.2541085,108.77493 74.1906977,123.149504 45.3407752,116.065008 C6.97364341,106.643535 1.00775194,112.243612 1.00775194,112.243612" id="Fill-7" fill="#228AE6"></path>
                    <path d="M1.00775194,112.243612 C1.00775194,112.243612 9.92534884,95.4272558 45.5957364,105.618651 C72.032093,113.17276 95.6689147,104.771132 106.135426,99.9157829 C106.954729,99.5358605 107.631938,100.651442 106.920465,101.207721 C97.2541085,108.77493 74.1906977,123.149504 45.3407752,116.065008 C6.97364341,106.643535 1.00775194,112.243612 1.00775194,112.243612 Z" id="Stroke-9" stroke="#1D1D1B" stroke-width="2" stroke-linecap="round" stroke-linejoin="round"></path>
                    <path d="M52.7295116,2.49307752 C52.7295116,2.49307752 46.3595116,-0.198627907 42.7930775,2.22199225 C39.2256357,4.6426124 35.0535426,5.10617829 30.8179612,5.42362016 C30.8179612,5.42362016 39.4805969,13.3213721 46.7424574,9.75493798 C46.7424574,9.75493798 50.3088915,7.58927907 52.7295116,8.60811628 L52.7295116,2.49307752 Z" id="Fill-11" fill="#228AE6"></path>
                    <path d="M52.7295116,2.49307752 C52.7295116,2.49307752 46.3595116,-0.198627907 42.7930775,2.22199225 C39.2256357,4.6426124 35.0535426,5.10617829 30.8179612,5.42362016 C30.8179612,5.42362016 39.4805969,13.3213721 46.7424574,9.75493798 C46.7424574,9.75493798 50.3088915,7.58927907 52.7295116,8.60811628 L52.7295116,2.49307752 Z" id="Stroke-13" stroke="#1D1D1B" stroke-width="2" stroke-linecap="round" stroke-linejoin="round"></path>
                    <path d="M56.2964496,10.6795504 C56.2964496,10.6795504 82.4224186,57.3011783 56.6350543,79.9816434" id="Stroke-15" stroke="#1D1D1B" stroke-width="2" stroke-linecap="round" stroke-linejoin="round"></path>
                    <mask id="mask-2" fill="white">
                        <use xlink:href="#path-1"></use>
                    </mask>
                    <g id="Clip-18"></g>
                    <polygon id="Fill-17" fill="#FFFFFF" mask="url(#mask-2)" points="52.7296124 87.380155 56.6356589 87.380155 56.6356589 1.00775194 52.7296124 1.00775194"></polygon>
                    <polygon id="Stroke-19" stroke="#1D1D1B" stroke-width="2" stroke-linecap="round" stroke-linejoin="round" mask="url(#mask-2)" points="52.7296124 87.380155 56.6356589 87.380155 56.6356589 1.00775194 52.7296124 1.00775194"></polygon>
                </g>
            </g>
        </g>
    </g>
</svg>