<?xml version="1.0" encoding="UTF-8"?>
<svg width="130px" height="130px" viewBox="0 0 130 130" version="1.1" xmlns="http://www.w3.org/2000/svg" xmlns:xlink="http://www.w3.org/1999/xlink">
    <!-- Generator: sketchtool 59.1 (101010) - https://sketch.com -->
    <title>255B555C-8369-4B40-979F-EF504CEE4FC3</title>
    <desc>Created with sketchtool.</desc>
    <defs>
        <polygon id="path-1" points="0 107.586589 88.4282171 107.586589 88.4282171 0 0 0"></polygon>
    </defs>
    <g id="Page-1" stroke="none" stroke-width="1" fill="none" fill-rule="evenodd">
        <g id="assets" transform="translate(-339.000000, -537.000000)">
            <g id="Group-9" transform="translate(339.000000, 537.000000)">
                <rect id="Rectangle" x="0" y="0" width="130" height="130"></rect>
                <g id="Group-17" transform="translate(20.155039, 11.085271)">
                    <path d="M55.0748527,11.8679922 C55.0748527,17.8661318 50.2124496,22.7285349 44.2143101,22.7285349 C38.2161705,22.7285349 33.3537674,17.8661318 33.3537674,11.8679922 C33.3537674,5.86985271 38.2161705,1.00744961 44.2143101,1.00744961 C50.2124496,1.00744961 55.0748527,5.86985271 55.0748527,11.8679922 Z" id="Stroke-1" stroke="#1D1D1B" stroke-width="2" stroke-linecap="round" stroke-linejoin="round"></path>
                    <mask id="mask-2" fill="white">
                        <use xlink:href="#path-1"></use>
                    </mask>
                    <g id="Clip-4"></g>
                    <polygon id="Fill-3" fill="#228AE6" mask="url(#mask-2)" points="36.5007752 24.6123256 51.9274419 24.6123256 51.9274419 15.4629457 36.5007752 15.4629457"></polygon>
                    <polygon id="Stroke-5" stroke="#1D1D1B" stroke-width="2" stroke-linecap="round" stroke-linejoin="round" mask="url(#mask-2)" points="36.5007752 24.6123256 51.9274419 24.6123256 51.9274419 15.4629457 36.5007752 15.4629457"></polygon>
                    <polygon id="Fill-6" fill="#228AE6" mask="url(#mask-2)" points="73.185062 32.898969 70.0751395 30.2888915 72.4242093 27.4903643 75.5341318 30.1004419"></polygon>
                    <polygon id="Stroke-7" stroke="#1D1D1B" stroke-width="2" stroke-linecap="round" stroke-linejoin="round" mask="url(#mask-2)" points="73.185062 32.898969 70.0751395 30.2888915 72.4242093 27.4903643 75.5341318 30.1004419"></polygon>
                    <polygon id="Stroke-8" stroke="#1D1D1B" stroke-width="2" stroke-linecap="round" stroke-linejoin="round" mask="url(#mask-2)" points="71.1484961 26.4847287 75.8466357 20.8876744 81.4436899 25.585814 76.7455504 31.1828682"></polygon>
                    <path d="M87.4205659,63.3724806 C87.4205659,87.2350388 68.0767674,106.578837 44.2142093,106.578837 C20.3516512,106.578837 1.00785271,87.2350388 1.00785271,63.3724806 C1.00785271,39.5099225 20.3516512,20.166124 44.2142093,20.166124 C68.0767674,20.166124 87.4205659,39.5099225 87.4205659,63.3724806" id="Fill-9" fill="#228AE6" mask="url(#mask-2)"></path>
                    <path d="M87.4205659,63.3724806 C87.4205659,87.2350388 68.0767674,106.578837 44.2142093,106.578837 C20.3516512,106.578837 1.00785271,87.2350388 1.00785271,63.3724806 C1.00785271,39.5099225 20.3516512,20.166124 44.2142093,20.166124 C68.0767674,20.166124 87.4205659,39.5099225 87.4205659,63.3724806 Z" id="Stroke-10" stroke="#1D1D1B" stroke-width="2" stroke-linecap="round" stroke-linejoin="round" mask="url(#mask-2)"></path>
                    <path d="M82.7731163,63.3724806 C82.7731163,84.6682946 65.5093178,101.931085 44.2145116,101.931085 C22.9186977,101.931085 5.65489922,84.6682946 5.65489922,63.3724806 C5.65489922,42.0766667 22.9186977,24.813876 44.2145116,24.813876 C65.5093178,24.813876 82.7731163,42.0766667 82.7731163,63.3724806" id="Fill-11" fill="#FFFFFF" mask="url(#mask-2)"></path>
                    <path d="M82.7731163,63.3724806 C82.7731163,84.6682946 65.5093178,101.931085 44.2145116,101.931085 C22.9186977,101.931085 5.65489922,84.6682946 5.65489922,63.3724806 C5.65489922,42.0766667 22.9186977,24.813876 44.2145116,24.813876 C65.5093178,24.813876 82.7731163,42.0766667 82.7731163,63.3724806 Z" id="Stroke-12" stroke="#1D1D1B" stroke-width="2" stroke-linecap="round" stroke-linejoin="round" mask="url(#mask-2)"></path>
                    <polygon id="Fill-13" fill="#228AE6" mask="url(#mask-2)" points="47.8025116 66.9607829 40.6263101 59.7845814 54.5484031 53.0376822"></polygon>
                    <polygon id="Stroke-14" stroke="#1D1D1B" stroke-width="2" stroke-linecap="round" stroke-linejoin="round" mask="url(#mask-2)" points="47.8025116 66.9607829 40.6263101 59.7845814 54.5484031 53.0376822"></polygon>
                    <polygon id="Fill-15" fill="#FFFFFF" mask="url(#mask-2)" points="40.6258062 59.7840775 47.8020078 66.9602791 33.8799147 73.7071783"></polygon>
                    <polygon id="Stroke-16" stroke="#1D1D1B" stroke-width="2" stroke-linecap="round" stroke-linejoin="round" mask="url(#mask-2)" points="40.6258062 59.7840775 47.8020078 66.9602791 33.8799147 73.7071783"></polygon>
                </g>
            </g>
        </g>
    </g>
</svg>