<?xml version="1.0" encoding="UTF-8"?>
<svg width="80px" height="80px" viewBox="0 0 80 80" version="1.1" xmlns="http://www.w3.org/2000/svg" xmlns:xlink="http://www.w3.org/1999/xlink">
    <!-- Generator: sketchtool 59.1 (101010) - https://sketch.com -->
    <title>5E3C6D66-A082-47C3-B3FE-EB17E5590C3E</title>
    <desc>Created with sketchtool.</desc>
    <g id="Page-1" stroke="none" stroke-width="1" fill="none" fill-rule="evenodd">
        <g id="assets" transform="translate(-30.000000, -262.000000)">
            <g id="ic_icon_bar" transform="translate(30.000000, 262.000000)">
                <rect id="Rectangle" fill="#228AE6" x="0" y="0" width="80" height="80" rx="3"></rect>
                <path d="M18.7893333,29.4282667 C18.7893333,36.8316815 21.5733055,40.5333333 27.1413333,40.5333333 C30.0903259,40.5333333 32.2143935,39.5434766 33.5136,37.5637333 C34.8128065,35.5839901 35.4624,32.872195 35.4624,29.4282667 C35.4624,26.0049607 34.8128065,23.3034766 33.5136,21.3237333 C32.2143935,19.3439901 30.0903259,18.3541333 27.1413333,18.3541333 C21.5733055,18.3541333 18.7893333,22.0454742 18.7893333,29.4282667 Z M31.1626667,29.4282667 C31.1626667,31.6761001 30.889425,33.403194 30.3429333,34.6096 C29.7964417,35.816006 28.7292524,36.4192 27.1413333,36.4192 C25.532792,36.4192 24.4552916,35.816006 23.9088,34.6096 C23.3623084,33.403194 23.0890667,31.6761001 23.0890667,29.4282667 C23.0890667,27.2010555 23.3623084,25.4842727 23.9088,24.2778667 C24.4552916,23.0714606 25.532792,22.4682667 27.1413333,22.4682667 C28.7292524,22.4682667 29.7964417,23.0714606 30.3429333,24.2778667 C30.889425,25.4842727 31.1626667,27.2010555 31.1626667,29.4282667 Z M42.4842667,35.9861333 L42.4842667,40.5333333 L37.7824,40.5333333 L37.7824,35.9861333 L42.4842667,35.9861333 Z M52.7232,17.8592 C54.2080074,17.8592 55.4814169,18.1169752 56.5434667,18.6325333 C57.6055164,19.1480915 58.409775,19.859551 58.9562667,20.7669333 C59.5027583,21.6743156 59.776,22.6847944 59.776,23.7984 C59.776,25.2007181 59.3944927,26.3503955 58.6314667,27.2474667 C57.8684406,28.1445378 56.8579618,28.6961767 55.6,28.9024 L55.6,29.0570667 C58.6521041,29.964449 60.1781333,31.7585644 60.1781333,34.4394667 C60.1781333,36.3160983 59.5491618,37.836972 58.2912,39.0021333 C57.0332382,40.1672947 55.2597448,40.7498667 52.9706667,40.7498667 C50.5372323,40.7498667 48.5987628,40.1466727 47.1552,38.9402667 C45.7116372,37.7338606 44.9073786,35.9139677 44.7424,33.4805333 L49.0112,33.4805333 C49.1143116,34.5941389 49.4803524,35.4757301 50.1093333,36.1253333 C50.7383143,36.7749366 51.6302164,37.0997333 52.7850667,37.0997333 C53.7749383,37.0997333 54.5482639,36.8264916 55.1050667,36.28 C55.6618695,35.7335084 55.9402667,35.0168933 55.9402667,34.1301333 C55.9402667,33.0783947 55.5381374,32.2741361 54.7338667,31.7173333 C53.929596,31.1605305 52.7438301,30.8821333 51.1765333,30.8821333 L50.2794667,30.8821333 L50.2794667,27.3248 L51.1765333,27.3248 C54.0636589,27.3660447 55.5072,26.3658769 55.5072,24.3242667 C55.5072,23.4375067 55.2494248,22.7415136 54.7338667,22.2362667 C54.2183085,21.7310197 53.51716,21.4784 52.6304,21.4784 C51.7023954,21.4784 50.9393808,21.7722637 50.3413333,22.36 C49.7432859,22.9477363 49.4030226,23.7674614 49.3205333,24.8192 L45.0517333,24.8192 C45.1754673,22.5919889 45.8972378,20.875206 47.2170667,19.6688 C48.5368955,18.462394 50.3722549,17.8592 52.7232,17.8592 Z" id="0.3" fill="#FFFFFF" fill-rule="nonzero"></path>
                <path d="M31.3706667,55.168 C32.2808934,55.3528898 33.009775,55.7831077 33.5573333,56.4586667 C34.1048916,57.1342256 34.3786667,57.9271066 34.3786667,58.8373333 C34.3786667,60.1031174 33.9555598,61.1022186 33.1093333,61.8346667 C32.2631069,62.5671148 31.0364525,62.9333333 29.4293333,62.9333333 L22.9653333,62.9333333 L22.9653333,47.872 L29.3013333,47.872 C30.8231187,47.872 31.9928848,48.2062189 32.8106667,48.8746667 C33.6284485,49.5431145 34.0373333,50.4817717 34.0373333,51.6906667 C34.0373333,52.629338 33.7920025,53.3973303 33.3013333,53.9946667 C32.8106642,54.592003 32.1671151,54.9831102 31.3706667,55.168 Z M25.9733333,54.1866667 L28.6826667,54.1866667 C29.4364482,54.1866667 30.0088869,54.0195572 30.4,53.6853333 C30.7911131,53.3511094 30.9866667,52.8711142 30.9866667,52.2453333 C30.9866667,51.6195524 30.7946686,51.1360017 30.4106667,50.7946667 C30.0266647,50.4533316 29.4364484,50.2826667 28.64,50.2826667 L25.9733333,50.2826667 L25.9733333,54.1866667 Z M28.832,60.48 C29.6284484,60.48 30.24,60.3057795 30.6666667,59.9573333 C31.0933355,59.6088871 31.3066667,59.1004478 31.3066667,58.432 C31.3066667,57.7635522 31.0897799,57.2480018 30.656,56.8853333 C30.2222201,56.5226649 29.6071151,56.3413333 28.8106667,56.3413333 L25.9733333,56.3413333 L25.9733333,60.48 L28.832,60.48 Z M41.12,50.9653333 C42.1155605,50.9653333 42.9688853,51.1999977 43.68,51.6693333 C44.3911147,52.138669 44.8959985,52.7715516 45.1946667,53.568 L45.1946667,51.1146667 L48.1813333,51.1146667 L48.1813333,62.9333333 L45.1946667,62.9333333 L45.1946667,60.4586667 C44.8959985,61.2551151 44.3911147,61.8915532 43.68,62.368 C42.9688853,62.8444468 42.1155605,63.0826667 41.12,63.0826667 C40.1244395,63.0826667 39.2284484,62.8408913 38.432,62.3573333 C37.6355516,61.8737754 37.0133356,61.1733379 36.5653333,60.256 C36.1173311,59.3386621 35.8933333,58.2613395 35.8933333,57.024 C35.8933333,55.7866605 36.1173311,54.7093379 36.5653333,53.792 C37.0133356,52.8746621 37.6355516,52.1742246 38.432,51.6906667 C39.2284484,51.2071087 40.1244395,50.9653333 41.12,50.9653333 Z M42.0586667,53.5893333 C41.1199953,53.5893333 40.3662251,53.8951081 39.7973333,54.5066667 C39.2284416,55.1182253 38.944,55.957328 38.944,57.024 C38.944,58.090672 39.2284416,58.9262192 39.7973333,59.5306667 C40.3662251,60.1351141 41.1199953,60.4373333 42.0586667,60.4373333 C42.9688934,60.4373333 43.7191082,60.1280031 44.3093333,59.5093333 C44.8995585,58.8906636 45.1946667,58.0622274 45.1946667,57.024 C45.1946667,55.9715503 44.8995585,55.1360031 44.3093333,54.5173333 C43.7191082,53.8986636 42.9688934,53.5893333 42.0586667,53.5893333 Z M53.92,53.376 C54.3608911,52.6222185 54.9439964,52.0284466 55.6693333,51.5946667 C56.3946703,51.1608867 57.2053289,50.944 58.1013333,50.944 L58.1013333,54.1653333 L57.2266667,54.1653333 C55.0222112,54.1653333 53.92,55.1893231 53.92,57.2373333 L53.92,62.9333333 L50.912,62.9333333 L50.912,51.1146667 L53.92,51.1146667 L53.92,53.376 Z" id="Bar" fill="#FFFFFF" fill-rule="nonzero"></path>
            </g>
        </g>
    </g>
</svg>