<?xml version="1.0" encoding="UTF-8"?>
<svg width="40px" height="40px" viewBox="0 0 40 40" version="1.1" xmlns="http://www.w3.org/2000/svg" xmlns:xlink="http://www.w3.org/1999/xlink">
    <!-- Generator: sketchtool 59.1 (101010) - https://sketch.com -->
    <title>F4C147A2-A1F4-49A8-9E27-627DEC55FF9B</title>
    <desc>Created with sketchtool.</desc>
    <g id="Page-1" stroke="none" stroke-width="1" fill="none" fill-rule="evenodd">
        <g id="assets" transform="translate(-238.000000, -405.000000)">
            <g id="Group-23" transform="translate(238.000000, 405.000000)">
                <rect id="Rectangle-58" x="0" y="0" width="40" height="40"></rect>
                <g id="Medium_font_awesome" transform="translate(6.666667, 6.666667)">
                    <polygon id="Rectangle-path" points="0.42020202 0.0534632035 28.6787879 0.0534632035 28.6787879 28.6028139 0.42020202 28.6028139"></polygon>
                    <path d="M9.13737374,6.95021645 L9.13737374,24.432684 C9.13737374,24.7 9.08484848,24.9138528 8.97979798,25.0742424 C8.87474747,25.234632 8.66464646,25.3415584 8.45454545,25.3415584 C8.2969697,25.3415584 8.13939394,25.2880952 7.98181818,25.234632 L1.1010101,21.7595238 C0.890909091,21.6525974 0.733333333,21.4922078 0.575757576,21.278355 C0.418181818,21.0645022 0.365656566,20.7971861 0.365656566,20.5833333 L0.365656566,3.52857143 C0.365656566,3.31471861 0.418181818,3.154329 0.523232323,3.0474026 C0.628282828,2.88701299 0.785858586,2.83354978 0.943434343,2.83354978 C1.1010101,2.83354978 1.31111111,2.88701299 1.62626263,3.0474026 L9.13737374,6.84329004 C9.13737374,6.89675325 9.13737374,6.95021645 9.13737374,6.95021645 Z M10.0828283,8.44718615 L17.9090909,21.3852814 L10.0828283,17.4290043 L10.0828283,8.44718615 Z M26.6282828,6.95021645 C26.6282828,7.00367965 25.3676768,9.08874459 22.8464646,13.2054113 C20.3252525,17.3220779 18.8545455,19.7813853 18.4343434,20.4764069 L12.7090909,11.0134199 L17.4363636,3.154329 C17.5939394,2.88701299 17.8565657,2.72662338 18.2242424,2.72662338 C18.3818182,2.72662338 18.4868687,2.78008658 18.5919192,2.83354978 L26.5232323,6.84329004 C26.5757576,6.84329004 26.6282828,6.89675325 26.6282828,6.95021645 Z M26.6282828,8.71450216 L26.6282828,24.432684 C26.6282828,24.7 26.5757576,24.8603896 26.4181818,25.0207792 C26.2606061,25.1811688 26.1030303,25.234632 25.840404,25.234632 C25.630303,25.234632 25.3676768,25.1811688 25.1575758,25.0207792 L18.6969697,21.7595238 L26.6282828,8.71450216 Z" id="Shape" fill="#023970" fill-rule="nonzero"></path>
                </g>
            </g>
        </g>
    </g>
</svg>