<?xml version="1.0" encoding="UTF-8"?>
<svg width="40px" height="40px" viewBox="0 0 40 40" version="1.1" xmlns="http://www.w3.org/2000/svg" xmlns:xlink="http://www.w3.org/1999/xlink">
    <!-- Generator: sketchtool 59.1 (101010) - https://sketch.com -->
    <title>9BB6F004-5260-4EBC-B026-339F3729114E</title>
    <desc>Created with sketchtool.</desc>
    <g id="Page-1" stroke="none" stroke-width="1" fill="none" fill-rule="evenodd">
        <g id="assets" transform="translate(-134.000000, -405.000000)">
            <g id="Group-25" transform="translate(134.000000, 405.000000)">
                <rect id="Rectangle-58" x="0" y="0" width="40" height="40"></rect>
                <g id="twitter-logo-silhouette" transform="translate(6.500000, 9.000000)" fill="#023970" fill-rule="nonzero">
                    <path d="M27.5,2.66273693 C26.4878472,3.11122958 25.4018219,3.41539216 24.2607516,3.55118464 C25.4258619,2.85348448 26.3177247,1.74683415 26.7404248,0.432226307 C25.6475245,1.0783415 24.4411642,1.54750408 23.1557639,1.80183415 C22.1264461,0.70376634 20.6623407,0.0198161765 19.0384028,0.0198161765 C15.9229044,0.0198161765 13.3968137,2.54590686 13.3968137,5.65969771 C13.3968137,6.10131536 13.4466462,6.53264297 13.5428962,6.94509804 C8.85504493,6.70964052 4.69818627,4.46367239 1.91605801,1.0508415 C1.42973039,1.8825817 1.15306781,2.85173203 1.15306781,3.88626225 C1.15306781,5.84357026 2.14976307,7.57058824 3.66199346,8.58098856 C2.73746324,8.55007353 1.86793301,8.29574346 1.10669526,7.87299837 L1.10669526,7.94345588 C1.10669526,10.6757516 3.05196078,12.9560948 5.63129902,13.4750899 C5.15872141,13.6022549 4.66039624,13.6727124 4.14486111,13.6727124 C3.78057598,13.6727124 3.4282884,13.6366299 3.08287582,13.5678799 C3.80115605,15.810433 5.88392157,17.441201 8.35159722,17.4859109 C6.42178922,18.9981413 3.98848856,19.8968791 1.34556781,19.8968791 C0.890200163,19.8968791 0.441662582,19.8693791 4.49346405e-05,19.8195466 C2.4969281,21.4228595 5.46122141,22.3576797 8.64717729,22.3576797 C19.0247426,22.3576797 24.6972917,13.7620874 24.6972917,6.30756536 L24.6783742,5.57724265 C25.786732,4.78670752 26.7455923,3.79347222 27.5,2.66273693 Z" id="Shape"></path>
                </g>
            </g>
        </g>
    </g>
</svg>