<?xml version="1.0" encoding="UTF-8"?>
<svg width="40px" height="40px" viewBox="0 0 40 40" version="1.1" xmlns="http://www.w3.org/2000/svg" xmlns:xlink="http://www.w3.org/1999/xlink">
    <!-- Generator: sketchtool 59.1 (101010) - https://sketch.com -->
    <title>6FE72402-6E05-45F6-8090-504CEE2CCBAA</title>
    <desc>Created with sketchtool.</desc>
    <g id="Page-1" stroke="none" stroke-width="1" fill="none" fill-rule="evenodd">
        <g id="assets" transform="translate(-338.000000, -405.000000)" fill="#023970" fill-rule="nonzero">
            <g id="youtube-(1)" transform="translate(342.000000, 414.000000)">
                <path d="M16.1466152,0.000256375166 C17.392297,0.00358925233 26.1951152,0.0502495326 28.5203879,0.703493456 C29.8909876,1.08243257 30.9717936,2.19168154 31.3406886,3.59891906 C32.0262326,6.16928911 32,11.527067 32,11.527067 L31.9994695,11.6589333 C31.9942969,12.4948988 31.9386914,17.0966549 31.3409327,19.428148 C30.9717936,20.8351349 29.8912318,21.9446345 28.5203879,22.323323 C26.239832,22.9395824 17.7286739,22.9946056 16.2270047,22.9995184 L15.7734298,22.9994993 C14.2754399,22.9943918 5.78382404,22.9371881 3.47947756,22.2965065 C2.1086337,21.9175674 1.02807187,20.8080678 0.658932792,19.4010809 C-2.1081227e-15,16.8575274 -2.1081227e-15,11.5 -2.1081227e-15,11.5 C0.000356372522,11.2535528 0.0153240184,6.10951306 0.658932792,3.59891906 C1.02782768,2.19193215 2.13500077,1.05536549 3.47923344,0.676676982 C5.80450615,0.0483340701 14.6071138,0.00345243358 15.8527656,0.000246602399 Z M13.1764706,6.70833333 L13.1764706,16.2916667 L21.6470588,11.5 L13.1764706,6.70833333 Z" id="Combined-Shape"></path>
            </g>
        </g>
    </g>
</svg>