<?xml version="1.0" encoding="UTF-8"?>
<svg width="24px" height="24px" viewBox="0 0 24 24" version="1.1" xmlns="http://www.w3.org/2000/svg" xmlns:xlink="http://www.w3.org/1999/xlink">
    <!-- Generator: sketchtool 59.1 (101010) - https://sketch.com -->
    <title>4F226704-8D28-4BC5-B498-3AACC9DBF0BD</title>
    <desc>Created with sketchtool.</desc>
    <g id="Page-1" stroke="none" stroke-width="1" fill="none" fill-rule="evenodd">
        <g id="assets" transform="translate(-30.000000, -469.000000)">
            <g id="Group-5" transform="translate(30.000000, 469.000000)">
                <rect id="Rectangle-58" x="0" y="0" width="24" height="24"></rect>
                <path d="M15.3618672,4.39030406 L13.4994055,4.3875 C11.4072408,4.3875 10.0547945,5.77625606 10.0547945,7.92528549 L10.0547945,9.55668596 L8.18206151,9.55668596 C8.02089592,9.55668596 7.88961039,9.68735503 7.88961039,9.84942953 L7.88961039,12.2132497 C7.88961039,12.3745765 8.02089592,12.5059933 8.18206151,12.5059933 L10.0547945,12.5059933 L10.0547945,18.4698491 C10.0547945,18.6311758 10.18608,18.7625927 10.3479926,18.7625927 L12.7903143,18.7625927 C12.9522269,18.7625927 13.0835124,18.6311758 13.0835124,18.4698491 L13.0835124,12.5059933 L15.2727873,12.5059933 C15.4346999,12.5059933 15.5654252,12.3745765 15.5654252,12.2132497 L15.5667324,9.84942953 C15.5667324,9.77203756 15.5353583,9.69763657 15.4806405,9.64211624 C15.4259226,9.58734366 15.3515959,9.55668596 15.2735343,9.55668596 L13.0835124,9.55668596 L13.0835124,8.17372496 C13.0835124,7.5091634 13.2418767,7.17174185 14.1063443,7.17174185 L15.3611202,7.1709941 C15.5230328,7.1709941 15.6535713,7.03957729 15.6535713,6.87825053 L15.6535713,4.68398231 C15.6535713,4.52172087 15.5230328,4.39105181 15.3618672,4.39030406 Z" id="Fill-1" fill="#ADB5BD"></path>
            </g>
        </g>
    </g>
</svg>