<?xml version="1.0" encoding="UTF-8"?>
<svg width="103px" height="26px" viewBox="0 0 103 26" version="1.1" xmlns="http://www.w3.org/2000/svg" xmlns:xlink="http://www.w3.org/1999/xlink">
    <!-- Generator: sketchtool 59.1 (101010) - https://sketch.com -->
    <title>95BE0B15-6C4D-44B0-AAD7-55FB34C065B5</title>
    <desc>Created with sketchtool.</desc>
    <defs>
        <polygon id="path-1" points="0.131649438 0.0188494382 6.55874157 0.0188494382 6.55874157 11.6661303 0.131649438 11.6661303"></polygon>
        <polygon id="path-3" points="0.193914607 0.150536682 14.0222292 0.150536682 14.0222292 3.50561798 0.193914607 3.50561798"></polygon>
        <polygon id="path-5" points="0.000114917275 0.0380224719 21.3900674 0.0380224719 21.3900674 21.3167191 0.000114917275 21.3167191"></polygon>
    </defs>
    <g id="Page-1" stroke="none" stroke-width="1" fill="none" fill-rule="evenodd">
        <g id="assets" transform="translate(-30.000000, -36.000000)">
            <g id="Group-2" transform="translate(30.000000, 36.000000)">
                <rect id="Rectangle" x="0" y="0" width="103" height="24"></rect>
                <g id="Group-32" transform="translate(0.000000, 0.000000)">
                    <polygon id="Fill-1" fill="#FFFFFF" points="30.8846562 12.7989034 27.0826787 6.18326292 29.1043416 6.18326292 31.7672629 10.8376449 34.4377348 6.18326292 36.4593978 6.18326292 32.6423191 12.7989034 32.6423191 17.8305438 30.8846562 17.8305438"></polygon>
                    <path d="M45.0269124,13.349582 L43.2994517,9.38931236 L41.4889348,13.349582 L45.0269124,13.349582 Z M45.7434067,15.0018067 L40.7573393,15.0018067 L39.4597213,17.8305708 L37.5661483,17.8305708 L43.3296539,5.45169438 L48.8892944,17.8305708 L46.9655191,17.8305708 L45.7434067,15.0018067 Z" id="Fill-2" fill="#FFFFFF"></path>
                    <polygon id="Fill-3" fill="#FFFFFF" points="55.0728 7.83516404 55.0728 17.8304899 53.3151371 17.8304899 53.3151371 7.83516404 50.6373843 7.83516404 50.6373843 6.18320899 57.7430022 6.18320899 57.7430022 7.83516404"></polygon>
                    <g id="Group-31" transform="translate(0.000000, 0.231775)">
                        <path d="M68.0455551,7.68644494 L66.6198472,8.53156854 C66.3531506,8.06882697 66.0993978,7.76707416 65.8580494,7.62604045 C65.6067236,7.46532135 65.2820494,7.38469213 64.884836,7.38469213 C64.3970157,7.38469213 63.9922517,7.52302921 63.6702742,7.79970337 C63.3485663,8.07125393 63.1875775,8.41345618 63.1875775,8.82550112 C63.1875775,9.39395056 63.6101393,9.85156854 64.4547236,10.1986247 L65.6167011,10.6740404 C66.5621393,11.0558831 67.2538247,11.5224 67.691218,12.0730517 C68.1286112,12.6237034 68.3473079,13.2989393 68.3473079,14.0984899 C68.3473079,15.1698607 67.9902742,16.055164 67.2762067,16.7541303 C66.5570157,17.4582202 65.6644315,17.8101303 64.5981843,17.8101303 C63.587218,17.8101303 62.7526112,17.5108045 62.0938247,16.9124225 C61.4450157,16.3137708 61.039982,15.4716135 60.8792629,14.3851416 L62.6593079,13.9930517 C62.7399371,14.6769169 62.8807011,15.149636 63.0818697,15.411209 C63.444027,15.9141303 63.972027,16.1654562 64.6661393,16.1654562 C65.214364,16.1654562 65.6692854,15.9818157 66.0314427,15.6148045 C66.3936,15.2477933 66.5748135,14.7826247 66.5748135,14.2195685 C66.5748135,13.9930517 66.5429933,13.7856809 66.4801618,13.5971865 C66.4176,13.4081528 66.3194427,13.2347596 66.1862292,13.0764674 C66.0530157,12.9181753 65.8807011,12.7698607 65.6692854,12.6315236 C65.458409,12.4929169 65.2065438,12.3610517 64.9150382,12.2351191 L63.7908135,11.7675236 C62.196836,11.0939056 61.3997124,10.1077483 61.3997124,8.81066966 C61.3997124,7.93534382 61.7340944,7.20374831 62.4031281,6.61534382 C63.0718921,6.02181573 63.9040719,5.72518652 64.8999371,5.72518652 C66.2428584,5.72518652 67.2913079,6.3791191 68.0455551,7.68644494" id="Fill-4" fill="#FFFFFF"></path>
                        <path d="M78.6350562,13.1178067 L76.9073258,9.15753708 L75.096809,13.1178067 L78.6350562,13.1178067 Z M79.3515506,14.7700315 L74.3654831,14.7700315 L73.0678652,17.5987955 L71.1742921,17.5987955 L76.9375281,5.2199191 L82.4971685,17.5987955 L80.5736629,17.5987955 L79.3515506,14.7700315 Z" id="Fill-6" fill="#FFFFFF"></path>
                        <polygon id="Fill-8" fill="#FFFFFF" points="91.9320809 7.60338876 87.8736539 7.60338876 87.8736539 10.4022202 91.7886202 10.4022202 91.7886202 12.0541753 87.8736539 12.0541753 87.8736539 17.5987146 86.115991 17.5987146 86.115991 5.95143371 91.9320809 5.95143371"></polygon>
                        <g id="Group-12" transform="translate(96.000000, 5.932584)">
                            <mask id="mask-2" fill="white">
                                <use xlink:href="#path-1"></use>
                            </mask>
                            <g id="Clip-11"></g>
                            <polygon id="Fill-10" fill="#FFFFFF" mask="url(#mask-2)" points="6.55879551 1.67080449 1.88958202 1.67080449 1.88958202 4.46963596 6.42315506 4.46963596 6.42315506 6.12159101 1.88958202 6.12159101 1.88958202 10.0141753 6.55879551 10.0141753 6.55879551 11.6661303 0.131649438 11.6661303 0.131649438 0.0188494382 6.55879551 0.0188494382"></polygon>
                        </g>
                        <path d="M8.08630112,16.318436 C8.06095281,16.2615371 8.03857079,16.2049079 8.01430112,16.148009 C8.01457079,16.1501663 8.01430112,16.1523236 8.01484045,16.1542112 C8.03075056,16.2380764 8.06499775,16.3214022 8.12054831,16.4033798 C8.12405393,16.408773 8.12755955,16.414436 8.13160449,16.4198292 C8.73753708,17.2660315 11.475964,17.2946157 11.475964,17.2946157 C11.475964,17.2946157 10.4560989,16.6822112 9.50634607,15.0103011 C8.10760449,15.6278292 8.03614382,16.1161888 8.08630112,16.318436" id="Fill-13" fill="#FFFFFF"></path>
                        <path d="M8.39684494,12.191218 C8.31648539,11.8765213 8.24394607,11.5442966 8.18057528,11.1942742 C7.69248539,11.4040719 7.28799101,11.6618697 7.03127191,11.9800719 C7.03019326,11.9611955 7.03046292,11.9428584 7.02938427,11.923982 C7.02965393,11.928836 7.02857528,11.9331506 7.02884494,11.9377348 C7.02911461,11.9517573 7.0299236,11.9660494 7.03127191,11.9803416 C7.03127191,11.9819596 7.03154157,11.9835775 7.03181124,11.9851955 C7.06039551,12.3106787 7.2073618,12.5369258 7.52205843,12.6350831 C7.52259775,12.6350831 7.52313708,12.6350831 7.5236764,12.6353528 C7.77068764,12.4703191 8.06650787,12.3230831 8.39711461,12.192027 C8.39711461,12.1917573 8.39684494,12.1914876 8.39684494,12.191218" id="Fill-15" fill="#FFFFFF"></path>
                        <path d="M7.9198382,8.74716404 C7.90905169,8.47102921 7.90365843,8.18626517 7.90419775,7.8936809 C7.66743371,7.98833258 7.45763596,8.10698427 7.2915236,8.25529888 C7.2915236,8.25475955 7.2915236,8.25448989 7.29179326,8.25422022 C7.29179326,8.25422022 7.29179326,8.25422022 7.2915236,8.25422022 L7.2915236,8.25529888 C7.28936629,8.26554607 7.28720899,8.27633258 7.28532135,8.28684944 C7.24864719,8.5009618 7.28532135,8.76226517 7.4929618,8.92945618 C7.49377079,8.92999551 7.49457978,8.93053483 7.49538876,8.93134382 C7.62563596,8.86338876 7.76774831,8.80298427 7.9198382,8.74959101 C7.9198382,8.74878202 7.9198382,8.74797303 7.9198382,8.74716404" id="Fill-17" fill="#FFFFFF"></path>
                        <path d="M14.5041169,11.1598652 C12.9872629,11.2402247 10.1876225,11.481573 8.39706067,12.1921348 C8.0667236,12.323191 7.77090337,12.4701573 7.52362247,12.635191 C7.37342022,12.7355056 7.23993708,12.8420225 7.12883596,12.9560899 C7.27364494,14.0018427 7.55571236,15.0737528 8.01440899,16.1480899 C8.03840899,16.2047191 8.06106067,16.261618 8.08640899,16.3185169 C8.03598202,16.1162697 8.10771236,15.6279101 9.50618427,15.010382 C10.7722517,14.4511011 13.1250607,13.7861124 17.466364,13.1305618 C17.466364,13.1305618 16.0932404,12.4297079 14.5041169,11.1598652" id="Fill-19" fill="#FFFFFF"></path>
                        <path d="M11.7193348,8.36491685 C10.7291326,8.33174831 9.05722247,8.35062472 7.92005393,8.74945618 C7.76769438,8.8031191 7.62558202,8.86325393 7.49533483,8.93120899 C7.36481798,8.99943371 7.24427865,9.07359101 7.14180674,9.15772584 C7.0220764,10.0373663 6.97380674,10.9660854 7.0293573,11.9239281 C7.03043596,11.9428045 7.03016629,11.9611416 7.03151461,11.980018 C7.28796404,11.6618157 7.69245843,11.404018 8.18054831,11.1942202 C9.78558202,10.5041528 12.305582,10.3418157 13.5312,10.3277933 C12.9026157,9.75179326 12.2764584,9.09516404 11.7193348,8.36491685" id="Fill-21" fill="#FFFFFF"></path>
                        <path d="M9.81308764,1.9700764 C9.81308764,1.9700764 8.00688539,4.5890427 7.29173933,8.25403146 C7.29173933,8.25457079 7.29146966,8.25484045 7.29146966,8.25511011 C7.45785169,8.10706517 7.66764944,7.98841348 7.90414382,7.89349213 C8.92023371,7.48684045 10.4349303,7.52243596 11.1611326,7.56962697 C10.1391101,5.9759191 9.50108764,4.08800899 9.81308764,1.9700764" id="Fill-23" fill="#FFFFFF"></path>
                        <g id="Group-27" transform="translate(4.044944, 20.224719)">
                            <mask id="mask-4" fill="white">
                                <use xlink:href="#path-3"></use>
                            </mask>
                            <g id="Clip-26"></g>
                            <path d="M1.37207191,1.48131236 C0.940341573,1.64877303 0.546364045,1.81866067 0.193914607,1.9820764 C0.74618427,2.47313258 1.31517303,2.91511011 1.87553258,3.30881798 C1.97099326,3.37569438 2.06618427,3.44122247 2.16110562,3.50567191 C2.56020674,3.28886292 2.95418427,3.08985169 3.3430382,2.90755955 C6.8230382,1.27475056 9.87508315,0.972188764 12.2707685,1.18818876 C12.7906787,1.23484045 13.2793079,1.30630112 13.7350382,1.39340225 C13.8315775,1.29794157 13.9273079,1.20113258 14.0222292,1.10243596 C13.602364,0.958705618 13.1865438,0.834121348 12.7747685,0.725986517 C8.13225169,-0.492620225 4.03526292,0.447964045 1.37207191,1.48131236" id="Fill-25" fill="#FFFFFF" mask="url(#mask-4)"></path>
                        </g>
                        <g id="Group-30">
                            <mask id="mask-6" fill="white">
                                <use xlink:href="#path-5"></use>
                            </mask>
                            <g id="Clip-29"></g>
                            <path d="M20.2421124,13.6108315 C20.2421124,14.8553258 19.9937528,16.0577528 19.502427,17.2043596 C13.5714607,16.8246742 7.92094382,18.7489888 4.12031461,20.4996404 C3.63626966,19.9921348 3.20777528,19.4679101 2.83914607,18.9280449 C1.71680899,17.2847191 1.14782022,15.4957753 1.14782022,13.6108315 L1.14782022,6.83420225 C1.14808989,6.82746067 1.14808989,6.82044944 1.14808989,6.8134382 C1.1472809,6.16570787 1.164,5.51932584 1.19770787,4.88426966 C2.47806742,4.22710112 3.51788764,3.23474157 4.23141573,1.9821573 C4.28130337,1.89451685 4.32957303,1.80579775 4.37595506,1.71626966 C6.46017978,1.36462921 8.58053933,1.18638202 10.6868764,1.1858427 C10.6893034,1.1858427 10.6914607,1.1858427 10.693618,1.1858427 L10.6998202,1.1858427 C12.8085843,1.1858427 14.9313708,1.36408989 17.0182921,1.71626966 C17.0652135,1.8068764 17.1140225,1.89640449 17.1644494,1.98485393 C17.8768989,3.23474157 18.9148315,4.22548315 20.1922247,4.88211236 C20.2256629,5.51851685 20.242382,6.16570787 20.2418427,6.81397753 C20.2418427,6.82206742 20.2418427,6.8301573 20.2421124,6.83824719 L20.2421124,13.6108315 Z M21.3897978,6.81478652 C21.3906067,5.772 21.348,4.85514607 21.2948764,4.12355056 C19.8025618,3.53002247 18.7915955,2.52148315 18.1616629,1.41640449 C18.0254831,1.17748315 17.9068315,0.934247191 17.8054382,0.689662921 C15.4615281,0.256853933 13.0771685,0.0378876404 10.6971236,0.0378876404 L10.6960449,0.0378876404 L10.6866067,0.0378876404 C8.31033708,0.0386966292 5.92921348,0.257393258 3.58907865,0.689662921 C3.48768539,0.933438202 3.36957303,1.17613483 3.23393258,1.41424719 C2.60346067,2.52094382 1.5908764,3.53137079 0.0955955056,4.12516854 C0.0419325843,4.85568539 -0.000943820225,5.77092135 0.000114917275,6.81478652 L0.000114917275,6.81478652 L0.000114917275,13.6108315 C0.000114917275,16.6793258 1.32094382,19.1300225 3.03438202,21.0184719 C3.12633708,21.1195955 3.21910112,21.2188315 3.31294382,21.3167191 C3.7174382,21.1648989 4.11680899,21.0241348 4.51105618,20.8938876 C10.0005843,19.0814831 14.5120449,19.3177079 17.6927191,20.0352809 C18.1279551,20.1334382 18.538382,20.2404944 18.9229213,20.3526742 C19.6413034,19.4538876 20.2609888,18.4421124 20.6994607,17.3122247 C21.1330787,16.1952809 21.3900674,14.963191 21.3900674,13.6108315 L21.3900674,6.81478652 L21.3897978,6.81478652 Z" id="Fill-28" fill="#FFFFFF" mask="url(#mask-6)"></path>
                        </g>
                    </g>
                </g>
            </g>
        </g>
    </g>
</svg>