<?xml version="1.0" encoding="UTF-8"?>
<svg width="24px" height="24px" viewBox="0 0 24 24" version="1.1" xmlns="http://www.w3.org/2000/svg" xmlns:xlink="http://www.w3.org/1999/xlink">
    <!-- Generator: sketchtool 59.1 (101010) - https://sketch.com -->
    <title>14802F8D-AE47-4C86-9D0D-16969539A9C5</title>
    <desc>Created with sketchtool.</desc>
    <g id="Page-1" stroke="none" stroke-width="1" fill="none" fill-rule="evenodd">
        <g id="assets" transform="translate(-110.000000, -469.000000)">
            <g id="Group-3" transform="translate(110.000000, 469.000000)">
                <rect id="Rectangle-58" x="0" y="0" width="24" height="24"></rect>
                <g id="Medium_font_awesome" transform="translate(3.000000, 4.000000)">
                    <polygon id="Rectangle-path" points="0.252121212 0.0320779221 17.2072727 0.0320779221 17.2072727 17.1616883 0.252121212 17.1616883"></polygon>
                    <path d="M6.08242424,4.17012987 L6.08242424,14.6596104 C6.08242424,14.82 6.05090909,14.9483117 5.98787879,15.0445455 C5.92484848,15.1407792 5.79878788,15.2049351 5.67272727,15.2049351 C5.57818182,15.2049351 5.48363636,15.1728571 5.38909091,15.1407792 L1.26060606,13.0557143 C1.13454545,12.9915584 1.04,12.8953247 0.945454545,12.767013 C0.850909091,12.6387013 0.819393939,12.4783117 0.819393939,12.35 L0.819393939,2.11714286 C0.819393939,1.98883117 0.850909091,1.8925974 0.913939394,1.82844156 C0.976969697,1.73220779 1.07151515,1.70012987 1.16606061,1.70012987 C1.26060606,1.70012987 1.38666667,1.73220779 1.57575758,1.82844156 L6.08242424,4.10597403 C6.08242424,4.13805195 6.08242424,4.17012987 6.08242424,4.17012987 Z M6.64969697,5.06831169 L11.3454545,12.8311688 L6.64969697,10.4574026 L6.64969697,5.06831169 Z M16.5769697,4.17012987 C16.5769697,4.20220779 15.8206061,5.45324675 14.3078788,7.92324675 C12.7951515,10.3932468 11.9127273,11.8688312 11.6606061,12.2858442 L8.22545455,6.60805195 L11.0618182,1.8925974 C11.1563636,1.73220779 11.3139394,1.63597403 11.5345455,1.63597403 C11.6290909,1.63597403 11.6921212,1.66805195 11.7551515,1.70012987 L16.5139394,4.10597403 C16.5454545,4.10597403 16.5769697,4.13805195 16.5769697,4.17012987 Z M16.5769697,5.2287013 L16.5769697,14.6596104 C16.5769697,14.82 16.5454545,14.9162338 16.4509091,15.0124675 C16.3563636,15.1087013 16.2618182,15.1407792 16.1042424,15.1407792 C15.9781818,15.1407792 15.8206061,15.1087013 15.6945455,15.0124675 L11.8181818,13.0557143 L16.5769697,5.2287013 Z" id="Shape" fill="#ADB5BD" fill-rule="nonzero"></path>
                </g>
            </g>
        </g>
    </g>
</svg>