<?xml version="1.0" encoding="UTF-8"?>
<svg width="24px" height="24px" viewBox="0 0 24 24" version="1.1" xmlns="http://www.w3.org/2000/svg" xmlns:xlink="http://www.w3.org/1999/xlink">
    <!-- Generator: sketchtool 59.1 (101010) - https://sketch.com -->
    <title>3E43CDAE-2BD8-4E9C-9A1D-53742FB10DE8</title>
    <desc>Created with sketchtool.</desc>
    <g id="Page-1" stroke="none" stroke-width="1" fill="none" fill-rule="evenodd">
        <g id="assets" transform="translate(-70.000000, -469.000000)">
            <g id="Group-4" transform="translate(70.000000, 469.000000)">
                <rect id="Rectangle-58" x="0" y="0" width="24" height="24"></rect>
                <g id="twitter-logo-silhouette" transform="translate(3.900000, 5.400000)" fill="#ADB5BD" fill-rule="nonzero">
                    <path d="M16.5,1.59764216 C15.8927083,1.86673775 15.2410931,2.04923529 14.556451,2.13071078 C15.2555172,1.71209069 15.7906348,1.04810049 16.0442549,0.259335784 C15.3885147,0.647004902 14.6646985,0.928502451 13.8934583,1.08110049 C13.2758676,0.422259804 12.3974044,0.0118897059 11.4230417,0.0118897059 C9.55374265,0.0118897059 8.03808824,1.52754412 8.03808824,3.39581863 C8.03808824,3.66078922 8.06798775,3.91958578 8.12573775,4.16705882 C5.31302696,4.02578431 2.81891176,2.67820343 1.1496348,0.630504902 C0.857838235,1.12954902 0.691840686,1.71103922 0.691840686,2.33175735 C0.691840686,3.50614216 1.28985784,4.54235294 2.19719608,5.14859314 C1.64247794,5.13004412 1.1207598,4.97744608 0.664017157,4.72379902 L0.664017157,4.76607353 C0.664017157,6.40545098 1.83117647,7.77365686 3.37877941,8.08505392 C3.09523284,8.16135294 2.79623775,8.20362745 2.48691667,8.20362745 C2.26834559,8.20362745 2.05697304,8.18197794 1.84972549,8.14072794 C2.28069363,9.4862598 3.53035294,10.4647206 5.01095833,10.4915466 C3.85307353,11.3988848 2.39309314,11.9381275 0.807340686,11.9381275 C0.534120098,11.9381275 0.264997549,11.9216275 2.69607843e-05,11.8917279 C1.49815686,12.8537157 3.27673284,13.4146078 5.18830637,13.4146078 C11.4148456,13.4146078 14.818375,8.25725245 14.818375,3.78453922 L14.8070245,3.34634559 C15.4720392,2.87202451 16.0473554,2.27608333 16.5,1.59764216 Z" id="Shape"></path>
                </g>
            </g>
        </g>
    </g>
</svg>