<?xml version="1.0" encoding="UTF-8"?>
<svg width="24px" height="24px" viewBox="0 0 24 24" version="1.1" xmlns="http://www.w3.org/2000/svg" xmlns:xlink="http://www.w3.org/1999/xlink">
    <!-- Generator: sketchtool 59.1 (101010) - https://sketch.com -->
    <title>45AE7F54-A677-481C-9891-7664A10AE7BA</title>
    <desc>Created with sketchtool.</desc>
    <g id="Page-1" stroke="none" stroke-width="1" fill="none" fill-rule="evenodd">
        <g id="assets" transform="translate(-150.000000, -469.000000)">
            <g id="Group" transform="translate(150.000000, 469.000000)">
                <rect id="Rectangle" x="0" y="0" width="24" height="24"></rect>
                <g id="youtube-(1)" transform="translate(2.400000, 5.400000)" fill="#ADB5BD" fill-rule="nonzero">
                    <path d="M9.69679381,0.000178071781 C10.4759491,0.00237429041 15.7224351,0.0316572055 17.1122327,0.422096074 C17.9345926,0.64945954 18.5830762,1.31500893 18.8044131,2.15935144 C19.1746069,3.54735126 19.1988772,6.29003132 19.2000294,6.82468734 L19.1998828,6.95744564 C19.1982425,7.33531748 19.1736373,10.2173412 18.8045596,11.6568888 C18.5830762,12.501081 17.9347391,13.1667807 17.1122327,13.3939938 C15.7599972,13.7593994 10.7568444,13.7959399 9.76973622,13.799594 L9.43060625,13.7995779 C8.44589613,13.795779 3.45402845,13.7577904 2.08768654,13.3779039 C1.26518022,13.1505405 0.616843119,12.4848407 0.395359675,11.6406486 C0.0395359675,10.2671296 0.00395359675,7.52601946 0.000395359675,6.99153261 L0.000395359675,6.80890185 C0.00395359675,6.27687675 0.0395359675,3.54735126 0.395359675,2.15935144 C0.616696607,1.31515929 1.28100046,0.633219292 2.08754006,0.406006189 C3.47733768,0.0304504642 8.72369838,0.00228378481 9.50283487,0.000171283861 Z M7.90588235,4.025 L7.90588235,9.775 L12.9882353,6.90000002 L7.90588235,4.025 Z" id="Combined-Shape"></path>
                </g>
            </g>
        </g>
    </g>
</svg>